<svg xmlns="http://www.w3.org/2000/svg" viewBox="0 0 4022.81 3510.98"><defs><style>.cls-1{fill:#fff;}.cls-2{fill:#cecece;}.cls-3{fill:#e0e0e0;}.cls-21,.cls-4{fill:#6ed5d7;}.cls-5{fill:#415f85;}.cls-6{fill:#2d3c59;}.cls-7{fill:#c2cacc;}.cls-8{fill:#fdfeff;}.cls-9{fill:#cdd5d7;}.cls-10{fill:#8e96a0;}.cls-11{fill:#d2d5d9;}.cls-12{fill:#415065;}.cls-13{fill:#dce7f4;opacity:0.05;}.cls-14{fill:#c7cace;}.cls-15{fill:#0db9bd;}.cls-16{fill:#fefeff;}.cls-17{fill:#f2f2f2;}.cls-18{fill:#e5e5e5;}.cls-19{fill:#a1a9b2;}.cls-20{fill:#020202;opacity:0.1;}.cls-21{opacity:0.21;}</style></defs><g id="Layer_2" data-name="Layer 2"><rect class="cls-1" x="3509.51" y="1847.42" width="33.49" height="511.99" transform="translate(1389.82 5610.25) rotate(-89.46)"/><rect class="cls-1" x="3805.02" y="2066.64" width="33.49" height="79.07" transform="translate(1679.8 5908.49) rotate(-89.46)"/><path class="cls-1" d="M3857.91,2254.11l-54.89-.51.32-33.49,54.89.51a24.27,24.27,0,0,0,24.46-24l.46-48.87a24.28,24.28,0,0,0-24-24.47l.31-33.49a57.8,57.8,0,0,1,57.19,58.27l-.46,48.87A57.8,57.8,0,0,1,3857.91,2254.11Z" transform="translate(-0.12 0.42)"/><path class="cls-1" d="M3836.06,2384.76l-54.89-.51A57.8,57.8,0,0,1,3724,2326l.46-48.88a57.8,57.8,0,0,1,58.27-57.19l50.77.48-.31,33.49-50.77-.48a24.28,24.28,0,0,0-24.47,24l-.45,48.87a24.25,24.25,0,0,0,24,24.46l54.88.52Z" transform="translate(-0.12 0.42)"/><rect class="cls-1" x="3794.55" y="2459.1" width="33.49" height="79.07" transform="translate(1276.99 6286.81) rotate(-89.46)"/><path class="cls-1" d="M3744.35,3052.85l-33.49-.31,4.8-513.82a57.81,57.81,0,0,1,58.27-57.19l-.31,33.5a24.25,24.25,0,0,0-24.46,24Z" transform="translate(-0.12 0.42)"/><path class="cls-1" d="M3848.51,2515.73l.32-33.49a24.27,24.27,0,0,0,24.46-24l.46-48.88a24.27,24.27,0,0,0-24-24.46l-51.69-.49.31-33.49,51.69.48a57.8,57.8,0,0,1,57.19,58.27l-.46,48.88A57.79,57.79,0,0,1,3848.51,2515.73Z" transform="translate(-0.12 0.42)"/><path class="cls-2" d="M3738.34,2611.14h-.27l-13.91.09h-.11c-.16,3.27-.87,6.54-.85,9.78v.08l14.35-1.61h0c.1-1.39.19-2.68.27-4.15S3738.26,2612.53,3738.34,2611.14Z" transform="translate(-0.12 0.42)"/><rect class="cls-1" x="3708.07" y="2617.23" width="46.6" height="54.63" rx="1.03" transform="translate(7483.85 5259.3) rotate(179.54)"/><path class="cls-1" d="M3702.22,2666.51l58.05-.47a11.31,11.31,0,0,1,11.37,11.18l.82,101.72a11.32,11.32,0,0,1-11.19,11.37l-58.05.47a11.32,11.32,0,0,1-11.36-11.19l-.83-101.72A11.31,11.31,0,0,1,3702.22,2666.51Z" transform="translate(-0.12 0.42)"/><path class="cls-3" d="M3702.2,2664.36l58.05-.46a13.43,13.43,0,0,1,13.53,13.3l.82,101.72a13.45,13.45,0,0,1-13.31,13.53l-58.05.47a13.45,13.45,0,0,1-13.53-13.31l-.82-101.72a13.44,13.44,0,0,1,13.31-13.53Zm68.11,114.6-.82-101.72a9.13,9.13,0,0,0-9.2-9l-58.06.46a9.14,9.14,0,0,0-9.05,9.21l.82,101.72a9.17,9.17,0,0,0,9.2,9.05l58.06-.47a9.09,9.09,0,0,0,6.42-2.73l.52-.57A9.06,9.06,0,0,0,3770.31,2779Z" transform="translate(-0.12 0.42)"/><rect class="cls-3" x="3724.69" y="2693.1" width="15.1" height="54.88" transform="translate(-21.94 30.62) rotate(-0.46)"/><rect class="cls-4" x="2735.83" y="118.49" width="394.47" height="246.24"/><rect class="cls-5" x="2735.83" y="60.04" width="394.47" height="60.28"/><rect class="cls-6" x="2735.83" width="394.47" height="60.28"/><circle class="cls-1" cx="2933.19" cy="29.71" r="20.23" transform="translate(1783.14 2728.68) rotate(-67.5)"/><circle class="cls-6" cx="2933.19" cy="29.71" r="8.41" transform="translate(837.99 2083.2) rotate(-45)"/><rect class="cls-7" x="3534.36" y="2806.18" width="379.22" height="704.8" rx="115.58"/><rect class="cls-8" x="3534.36" y="2792.04" width="379.22" height="704.8" rx="119.96"/><path class="cls-9" d="M3650.44,3450c-48.76-21-84.54-92.92-84.54-149.08V3056.5a41.09,41.09,0,0,1,41.08-41.09h43.26a119,119,0,0,1,119,119v268.74C3769.24,3507.44,3650.44,3450,3650.44,3450Z" transform="translate(-0.12 0.42)"/><rect class="cls-1" x="1672.13" y="3015.35" width="740.6" height="273.82"/><rect class="cls-10" x="1672.13" y="3044.09" width="740.6" height="29.43"/><polygon class="cls-11" points="2497.85 3271.74 2042.42 3271.74 1587 3271.74 1489.11 3369.96 2042.42 3369.96 2595.74 3369.96 2497.85 3271.74"/><rect class="cls-1" x="669.63" y="1132.82" width="2745.59" height="1911.27" rx="63.82"/><path class="cls-1" d="M3415.34,2800H669.75V1196.07a63.68,63.68,0,0,1,63.67-63.67H3351.24a64.1,64.1,0,0,1,64.1,64.1Z" transform="translate(-0.12 0.42)"/><rect class="cls-12" x="805.7" y="1246.54" width="2473.44" height="1428.46" rx="25.02"/><path class="cls-11" d="M2074.41,2917.15a31.87,31.87,0,1,1-31.86-31.86A31.86,31.86,0,0,1,2074.41,2917.15Z" transform="translate(-0.12 0.42)"/><path class="cls-11" d="M2286.88,2917.15a45.49,45.49,0,1,1-45.49-45.49A45.49,45.49,0,0,1,2286.88,2917.15Z" transform="translate(-0.12 0.42)"/><path class="cls-11" d="M2485.72,2917.15a45.49,45.49,0,1,1-45.49-45.49A45.49,45.49,0,0,1,2485.72,2917.15Z" transform="translate(-0.12 0.42)"/><path class="cls-11" d="M1690.35,2917.15a45.49,45.49,0,1,1-45.48-45.49A45.48,45.48,0,0,1,1690.35,2917.15Z" transform="translate(-0.12 0.42)"/><path class="cls-11" d="M1889.2,2917.15a45.49,45.49,0,1,1-45.49-45.49A45.49,45.49,0,0,1,1889.2,2917.15Z" transform="translate(-0.12 0.42)"/><polygon class="cls-13" points="1809.21 1246.54 805.7 2292.98 805.7 1687.82 1228.17 1246.54 1809.21 1246.54"/><polygon class="cls-13" points="2093.92 1246.19 805.7 2589.77 805.7 2377.35 1890.23 1246.54 2093.92 1246.19"/><rect class="cls-14" x="682.88" y="2795.42" width="2746" height="6"/><path class="cls-4" d="M3182.4,983c0-153.45,172.63-277.84,385.57-277.84S3953.54,829.54,3953.54,983,3780.91,1260.82,3568,1260.82a519.58,519.58,0,0,1-136.72-18l-70.66,87.78-41-135.15C3235.7,1144.49,3182.4,1068.23,3182.4,983Z" transform="translate(-0.12 0.42)"/><rect class="cls-1" x="3483.29" y="883.36" width="77.24" height="21.78" rx="0.76" transform="translate(7043.71 1788.93) rotate(180)"/><rect class="cls-1" x="3587.3" y="883.36" width="77.24" height="21.78" rx="0.76" transform="translate(7251.73 1788.93) rotate(180)"/><rect class="cls-1" x="3520.29" y="1015.41" width="77.24" height="21.78" rx="0.76" transform="translate(7117.7 2053.02) rotate(180)"/><rect class="cls-1" x="3342.09" y="1015.41" width="154.3" height="21.78" rx="1.28" transform="translate(6838.36 2053.02) rotate(180)"/><rect class="cls-1" x="3340.37" y="883.36" width="114.34" height="21.78" rx="0.92" transform="translate(6794.96 1788.93) rotate(180)"/><rect class="cls-1" x="3345.53" y="948.18" width="277.07" height="21.78" rx="1.18" transform="translate(6968.01 1918.56) rotate(180)"/><rect class="cls-1" x="3400.03" y="1077.52" width="231.06" height="21.78" rx="1.18" transform="translate(7030.99 2177.25) rotate(180)"/><path class="cls-4" d="M219.59,538.54l32.68-55.39a185.07,185.07,0,0,1-50.67-130.3C203.06,254.34,282.72,173.2,381.2,170c107.34-3.44,195.08,84.26,191.72,191.59-3.11,99.07-85.11,179-184.23,179.74a185.11,185.11,0,0,1-77.12-16.09L236.3,557.54C224.48,562.6,213.05,549.62,219.59,538.54Z" transform="translate(-0.12 0.42)"/><path class="cls-15" d="M275.64,368.41h0a27,27,0,0,1,14-35.43h0a27,27,0,0,1,35.43,14h0a27,27,0,0,1-14,35.42h0A27,27,0,0,1,275.64,368.41Z" transform="translate(-0.12 0.42)"/><path class="cls-15" d="M357.17,368.41h0a27,27,0,0,1,14-35.43h0a27,27,0,0,1,35.43,14h0a27,27,0,0,1-14,35.42h0A27,27,0,0,1,357.17,368.41Z" transform="translate(-0.12 0.42)"/><path class="cls-15" d="M438.69,368.41h0a27,27,0,0,1,14-35.43h0a27,27,0,0,1,35.43,14h0a27,27,0,0,1-14,35.42h0A27,27,0,0,1,438.69,368.41Z" transform="translate(-0.12 0.42)"/><rect class="cls-5" x="1299.43" y="799.25" width="713.19" height="212.63"/><rect class="cls-1" x="1419.03" y="898.92" width="340.35" height="13.29"/><rect class="cls-4" x="1814.02" y="799.25" width="198.6" height="212.63"/><polygon class="cls-1" points="1401.71 905.56 1368.47 924.76 1368.47 886.37 1401.71 905.56"/><rect class="cls-1" x="1893.02" y="885.26" width="40.61" height="40.61"/><rect class="cls-1" x="215.53" y="1608.02" width="1279.88" height="814.7"/><rect class="cls-5" x="688.24" y="1723.04" width="769.13" height="656.02"/><rect class="cls-5" x="258.43" y="1723.04" width="416.5" height="656.02"/><rect class="cls-5" x="417.61" y="1651.68" width="42.91" height="42.91"/><rect class="cls-4" x="1310.16" y="1762.46" width="112.77" height="42.91"/><rect class="cls-5" x="259.93" y="1651.68" width="136.89" height="42.91"/><rect class="cls-6" x="734.81" y="1805.37" width="688.12" height="311.88"/><rect class="cls-4" x="1310.16" y="2161.82" width="112.77" height="42.91"/><rect class="cls-6" x="734.81" y="2204.74" width="688.12" height="127.74"/><rect class="cls-1" x="1276.85" y="2230.19" width="120.01" height="15.47"/><rect class="cls-1" x="1133.01" y="2230.19" width="81.25" height="15.47"/><rect class="cls-1" x="917.11" y="2230.19" width="146.96" height="15.47"/><rect class="cls-1" x="800.68" y="2230.19" width="69.11" height="15.47"/><rect class="cls-5" x="781.39" y="2049.8" width="418" height="49.48"/><rect class="cls-1" x="764.21" y="2269.57" width="642.89" height="49.48"/><rect class="cls-4" x="534.38" y="1762.46" width="112.77" height="42.91"/><rect class="cls-6" x="290.7" y="1805.37" width="356.45" height="356.45"/><rect class="cls-4" x="534.38" y="2197.75" width="112.77" height="42.91"/><rect class="cls-6" x="290.7" y="2240.67" width="356.45" height="91.82"/><rect class="cls-4" x="312.57" y="1830.32" width="21.71" height="21.71"/><path class="cls-1" d="M528.55,1844H364.06c-1.5,0-2.71-.36-2.71-.81v-4.86c0-.44,1.21-.8,2.71-.8H528.55c1.5,0,2.71.36,2.71.8v4.86C531.26,1843.63,530.05,1844,528.55,1844Z" transform="translate(-0.12 0.42)"/><path class="cls-1" d="M602,1881.66H365.25c-2.16,0-3.9-.36-3.9-.8V1876c0-.45,1.74-.81,3.9-.81H602c2.15,0,3.9.36,3.9.81v4.86C605.86,1881.3,604.11,1881.66,602,1881.66Z" transform="translate(-0.12 0.42)"/><path class="cls-1" d="M485.54,1919.34H363.36c-1.11,0-2-.36-2-.81v-4.86c0-.44.9-.81,2-.81H485.54c1.11,0,2,.37,2,.81v4.86C487.55,1919,486.65,1919.34,485.54,1919.34Z" transform="translate(-0.12 0.42)"/><path class="cls-1" d="M558.59,1957h-194c-1.76,0-3.19-.36-3.19-.81v-4.85c0-.45,1.43-.81,3.19-.81H558.59c1.76,0,3.19.36,3.19.81v4.85C561.78,1956.65,560.35,1957,558.59,1957Z" transform="translate(-0.12 0.42)"/><path class="cls-1" d="M458.41,1994.69H362.92c-.87,0-1.57-.36-1.57-.81V1989c0-.45.7-.81,1.57-.81h95.49c.87,0,1.57.36,1.57.81v4.86C460,1994.33,459.28,1994.69,458.41,1994.69Z" transform="translate(-0.12 0.42)"/><path class="cls-1" d="M479.45,2044.59H388.79c-.82,0-1.49-.36-1.49-.81v-4.86c0-.44.67-.81,1.49-.81h90.66c.82,0,1.49.37,1.49.81v4.86C480.94,2044.23,480.27,2044.59,479.45,2044.59Z" transform="translate(-0.12 0.42)"/><path class="cls-1" d="M585.19,2090.49H390.5c-1.77,0-3.2-.36-3.2-.8v-4.86c0-.45,1.43-.81,3.2-.81H585.19c1.77,0,3.2.36,3.2.81v4.86C588.39,2090.13,587,2090.49,585.19,2090.49Z" transform="translate(-0.12 0.42)"/><path class="cls-1" d="M543,2138.73H389.82c-1.39,0-2.52-.36-2.52-.81v-4.85c0-.45,1.13-.81,2.52-.81H543c1.39,0,2.52.36,2.52.81v4.85C545.48,2138.37,544.35,2138.73,543,2138.73Z" transform="translate(-0.12 0.42)"/><rect class="cls-4" x="312.57" y="1868" width="21.71" height="21.71"/><rect class="cls-4" x="312.57" y="1905.67" width="21.71" height="21.71"/><rect class="cls-4" x="312.57" y="1943.35" width="21.71" height="21.71"/><rect class="cls-4" x="312.57" y="1981.02" width="21.71" height="21.71"/><rect class="cls-4" x="338.52" y="2030.92" width="21.71" height="21.71"/><rect class="cls-4" x="338.52" y="2076.83" width="21.71" height="21.71"/><rect class="cls-4" x="338.52" y="2125.06" width="21.71" height="21.71"/><rect class="cls-1" x="312.57" y="2280.34" width="21.71" height="21.71"/><rect class="cls-1" x="361.23" y="2280.34" width="158.18" height="21.71" rx="2.71"/><rect class="cls-1" x="1310.16" y="1832.82" width="92.81" height="15.47"/><rect class="cls-1" x="1293.44" y="1871.24" width="56.89" height="15.47"/><rect class="cls-1" x="1221.34" y="1871.24" width="51.15" height="15.47"/><rect class="cls-1" x="1109.31" y="1871.24" width="88.32" height="15.47"/><rect class="cls-1" x="1202.38" y="1906.67" width="91.07" height="15.47"/><rect class="cls-1" x="1320.39" y="1969.54" width="32.93" height="15.47"/><rect class="cls-1" x="1217.18" y="1969.54" width="82.25" height="15.47"/><rect class="cls-1" x="1234.31" y="2003.14" width="59.8" height="15.47"/><rect class="cls-1" x="1365.22" y="2067.85" width="36.68" height="15.47"/><rect class="cls-1" x="1223.83" y="2067.85" width="120.01" height="15.47"/><rect class="cls-1" x="1102.24" y="2003.14" width="112.03" height="15.47"/><rect class="cls-1" x="1012.26" y="2003.14" width="71.65" height="15.47"/><rect class="cls-1" x="949.88" y="2003.14" width="43.33" height="15.47"/><rect class="cls-1" x="1058.16" y="1906.67" width="71.11" height="15.47"/><rect class="cls-1" x="913.12" y="1906.67" width="120.18" height="15.47"/><rect class="cls-1" x="1149.73" y="1906.67" width="31.19" height="15.47"/><rect class="cls-1" x="1197.64" y="1832.82" width="100.05" height="15.47"/><rect class="cls-1" x="1035.96" y="1832.82" width="146.71" height="15.47"/><rect class="cls-1" x="1100.83" y="2067.85" width="79.84" height="15.47"/><rect class="cls-1" x="1056.34" y="2067.85" width="27.57" height="15.47"/><rect class="cls-1" x="938.74" y="2067.85" width="101.09" height="15.47"/><rect class="cls-1" x="864.89" y="2067.85" width="57.34" height="15.47"/><rect class="cls-1" x="803.51" y="2067.85" width="49.86" height="15.47"/><rect class="cls-5" x="1314.65" y="2286.57" width="82.21" height="15.47"/><rect class="cls-5" x="1223.83" y="2286.57" width="55.26" height="15.47"/><rect class="cls-5" x="1098.58" y="2286.57" width="82.09" height="15.47"/><rect class="cls-5" x="826.13" y="2286.57" width="225.3" height="15.47"/><rect class="cls-16" x="2157.87" y="477.46" width="928.26" height="1256.79"/><rect class="cls-17" x="2157.99" y="477.46" width="928.14" height="94.99"/><rect class="cls-5" x="2157.99" y="572.45" width="928.14" height="545.15"/><rect class="cls-18" x="2231.72" y="1171.32" width="217.95" height="217.95"/><path class="cls-19" d="M2449.79,1170.9v217.95H2231.84V1170.9h217.95m4.42-4.42H2227.42v226.79h226.79V1166.48Z" transform="translate(-0.12 0.42)"/><polygon class="cls-16" points="2449.67 1380.93 2449.67 1389.28 2441.94 1389.28 2343.22 1290.29 2334.01 1281.84 2231.72 1180.28 2231.72 1171.32 2241.23 1171.32 2342.68 1273.34 2449.67 1380.93"/><polygon class="cls-16" points="2449.67 1171.32 2449.67 1182.49 2350.99 1281.71 2342.95 1290.29 2244.46 1389.28 2231.72 1389.28 2231.72 1383.13 2334.01 1281.71 2342.78 1273.34 2445.17 1171.32 2449.67 1171.32"/><rect class="cls-12" x="2236.86" y="1409.78" width="110.85" height="20.07"/><rect class="cls-19" x="2236.86" y="1451.22" width="181.32" height="11.01"/><rect class="cls-19" x="2236.86" y="1475.81" width="181.32" height="11.01"/><rect class="cls-19" x="2236.86" y="1500.41" width="181.32" height="11.01"/><rect class="cls-18" x="2513.46" y="1171.32" width="217.95" height="217.95"/><path class="cls-19" d="M2731.53,1170.9v217.95h-218V1170.9h218m4.43-4.42h-226.8v226.79H2736V1166.48Z" transform="translate(-0.12 0.42)"/><polygon class="cls-16" points="2731.41 1380.93 2731.41 1389.28 2723.83 1389.28 2625.11 1290.29 2615.83 1281.84 2513.46 1180.28 2513.46 1171.32 2523.13 1171.32 2624.5 1273.34 2731.41 1380.93"/><polygon class="cls-16" points="2731.41 1171.32 2731.41 1182.49 2632.81 1281.71 2624.8 1290.29 2526.36 1389.28 2513.46 1389.28 2513.46 1383.13 2615.83 1281.71 2624.64 1273.34 2727.06 1171.32 2731.41 1171.32"/><rect class="cls-12" x="2518.76" y="1409.78" width="110.85" height="20.07"/><rect class="cls-19" x="2518.76" y="1451.22" width="181.32" height="11.01"/><rect class="cls-19" x="2518.76" y="1475.81" width="181.32" height="11.01"/><rect class="cls-19" x="2518.76" y="1500.41" width="181.32" height="11.01"/><rect class="cls-18" x="2795.2" y="1171.32" width="217.95" height="217.95"/><path class="cls-19" d="M3013.28,1170.9v217.95h-218V1170.9h218m4.42-4.42H2790.9v226.79h226.8V1166.48Z" transform="translate(-0.12 0.42)"/><polygon class="cls-16" points="3013.16 1380.93 3013.16 1389.28 3005.73 1389.28 2907.01 1290.29 2897.65 1281.84 2795.2 1180.28 2795.2 1171.32 2805.03 1171.32 2906.32 1273.34 3013.16 1380.93"/><polygon class="cls-16" points="3013.16 1171.32 3013.16 1182.49 2914.63 1281.71 2906.66 1290.29 2808.26 1389.28 2795.2 1389.28 2795.2 1383.13 2897.65 1281.71 2906.5 1273.34 3008.96 1171.32 3013.16 1171.32"/><rect class="cls-12" x="2800.65" y="1409.78" width="110.85" height="20.07"/><rect class="cls-19" x="2800.65" y="1451.22" width="181.32" height="11.01"/><rect class="cls-19" x="2800.65" y="1475.81" width="181.32" height="11.01"/><rect class="cls-19" x="2800.65" y="1500.41" width="181.32" height="11.01"/><rect class="cls-19" x="2236.86" y="1525" width="181.32" height="11.01"/><rect class="cls-19" x="2236.86" y="1549.59" width="181.32" height="11.01"/><rect class="cls-19" x="2236.86" y="1574.18" width="181.32" height="11.01"/><rect class="cls-19" x="2518.76" y="1525" width="181.32" height="11.01"/><rect class="cls-19" x="2518.76" y="1549.59" width="181.32" height="11.01"/><rect class="cls-19" x="2518.76" y="1574.18" width="181.32" height="11.01"/><rect class="cls-19" x="2800.65" y="1525" width="181.32" height="11.01"/><rect class="cls-19" x="2800.65" y="1549.59" width="181.32" height="11.01"/><rect class="cls-19" x="2800.65" y="1574.18" width="181.32" height="11.01"/><rect class="cls-15" x="2157.87" y="1592.05" width="929.28" height="142.2"/><circle class="cls-12" cx="2211.74" cy="524.96" r="22.43"/><circle class="cls-12" cx="2283.04" cy="524.96" r="22.43"/><circle class="cls-12" cx="2354.35" cy="524.96" r="22.43"/><rect class="cls-16" x="2236.86" y="1598.78" width="181.32" height="11.01"/><rect class="cls-16" x="2236.86" y="1623.37" width="181.32" height="11.01"/><rect class="cls-16" x="2236.86" y="1647.96" width="181.32" height="11.01"/><rect class="cls-16" x="2518.76" y="1598.78" width="181.32" height="11.01"/><rect class="cls-16" x="2518.76" y="1623.37" width="181.32" height="11.01"/><rect class="cls-16" x="2518.76" y="1647.96" width="181.32" height="11.01"/><rect class="cls-16" x="2800.65" y="1598.78" width="181.32" height="11.01"/><rect class="cls-16" x="2800.65" y="1623.37" width="181.32" height="11.01"/><rect class="cls-16" x="2800.65" y="1647.96" width="181.32" height="11.01"/><circle class="cls-16" cx="2622" cy="845.03" r="196.19"/><circle class="cls-15" cx="2623.06" cy="789.27" r="76.21" transform="translate(210.06 2086.38) rotate(-45)"/><path class="cls-15" d="M2712.45,953.24s-5.89,24.37-77.71,29.13c-2.58.18-5.32.32-8.07.44-1.36.06-2.73.11-4.21.15h0s0,0,0,0,0,0,0,0h0c-1.48,0-2.08-.07-3.08-.11-3.16-.13-6.22-.29-9.15-.48-71.77-4.77-77.67-29.13-77.67-29.13-5.75-66.58,45.85-86.45,45.85-86.45a144.28,144.28,0,0,0,17.32,7.7c2.43.89,4.71,1.64,6.84,2.27.58.18,1.15.34,1.71.5h0c1.27.35,2.5.66,3.65.94,8.37,2,13,2.06,14.51,2h0c1.48,0,6.5,0,15.32-2.24.92-.23,1.9-.48,2.89-.75.8-.23,1.65-.47,2.49-.73,1.92-.59,4-1.26,6.11-2a144.36,144.36,0,0,0,17.33-7.7S2718.2,886.66,2712.45,953.24Z" transform="translate(-0.12 0.42)"/><path class="cls-16" d="M2641.68,958.11,2623,978.7l-18.59-20.59,12.66-60.39a15.65,15.65,0,0,1-9.14-19.51c8.37,2,13,2.06,14.51,2h0a68.48,68.48,0,0,0,15.32-2.24,15.69,15.69,0,0,1-8.73,19.58Z" transform="translate(-0.12 0.42)"/><path class="cls-15" d="M2647.11,957l-11.8-56.57a21.31,21.31,0,0,0,7.87-23.87l-2.48.73c-1,.27-1.94.52-2.85.75a16,16,0,0,1,.82,5.06,15.77,15.77,0,0,1-9.61,14.52l12.62,60.51L2623,978.7l-18.59-20.59,12.66-60.39a15.76,15.76,0,0,1-9.17-19.51c-1.15-.28-2.35-.59-3.62-.94h0c-.56-.16-1.13-.32-1.71-.5a21.33,21.33,0,0,0,8.26,23.86L2599,957a5.53,5.53,0,0,0,1.31,4.85l18.59,20.59a3.89,3.89,0,0,0,.47.44c1,0,1.6.08,3.08.11h0s0,0,0,0,0,0,0,0h0c1.48,0,2.85-.09,4.21-.15a5.11,5.11,0,0,0,.42-.39l18.68-20.59A5.56,5.56,0,0,0,2647.11,957Z" transform="translate(-0.12 0.42)"/><path class="cls-20" d="M2622.85,712.63V865a76.21,76.21,0,0,0,0-152.41Z" transform="translate(-0.12 0.42)"/><path class="cls-20" d="M2622.46,879.89v102.7c1.48,0,2.18-.06,3.17-.1,3.15-.13,6.28-.29,9.22-.49,71.77-4.76,77.7-29.13,77.7-29.13,5.75-66.58-45.82-86.45-45.82-86.45a145.19,145.19,0,0,1-17.32,7.71c-2.43.88-4.7,1.63-6.83,2.27l-1.71.49h0c-1.27.35-2.65.66-3.79.94A61,61,0,0,1,2622.46,879.89Z" transform="translate(-0.12 0.42)"/><rect class="cls-1" x="1725.87" y="2193.09" width="847.85" height="280.24"/><circle class="cls-4" cx="1906.63" cy="2334.11" r="89.78" transform="translate(-803.22 3653.89) rotate(-76.72)"/><path class="cls-1" d="M1887.33,2310.27a12.87,12.87,0,1,1-12.87-12.87A12.87,12.87,0,0,1,1887.33,2310.27Z" transform="translate(-0.12 0.42)"/><path class="cls-1" d="M1951.66,2310.27a12.87,12.87,0,1,1-12.87-12.87A12.87,12.87,0,0,1,1951.66,2310.27Z" transform="translate(-0.12 0.42)"/><path class="cls-1" d="M1954.66,2342.45a48,48,0,0,1-96.07,0Z" transform="translate(-0.12 0.42)"/><polygon class="cls-21" points="2574.18 2193.36 2574.18 2217.24 2573.73 2217.92 2317.94 2473.78 2138.58 2473.78 2418.58 2193.36 2574.18 2193.36"/><polygon class="cls-21" points="2574.18 2235.7 2574.18 2280.33 2573.73 2281.01 2381.9 2472.83 2337.3 2472.83 2573.73 2236.38 2574.18 2235.7"/><rect class="cls-15" x="2063.45" y="2309.25" width="330.78" height="19.41"/><rect class="cls-15" x="2063.45" y="2348.06" width="220.46" height="19.41"/><rect class="cls-4" x="2063.45" y="2328.65" width="220.46" height="19.41"/><rect class="cls-1" x="714.52" y="190.86" width="847.85" height="280.24"/><circle class="cls-4" cx="895.27" cy="331.88" r="89.78" transform="translate(297.19 1076.68) rotate(-71.57)"/><path class="cls-1" d="M876,308a12.87,12.87,0,1,1-12.87-12.87A12.87,12.87,0,0,1,876,308Z" transform="translate(-0.12 0.42)"/><path class="cls-1" d="M940.3,308a12.87,12.87,0,1,1-12.86-12.87A12.86,12.86,0,0,1,940.3,308Z" transform="translate(-0.12 0.42)"/><path class="cls-1" d="M943.31,340.22a48,48,0,0,1-96.07,0Z" transform="translate(-0.12 0.42)"/><polygon class="cls-21" points="1562.83 191.13 1562.83 215 1562.37 215.68 1306.59 471.55 1127.23 471.55 1407.22 191.13 1562.83 191.13"/><polygon class="cls-21" points="1562.83 233.47 1562.83 278.1 1562.37 278.78 1370.55 470.6 1325.95 470.6 1562.37 234.15 1562.83 233.47"/><rect class="cls-1" x="396.86" y="606.78" width="734.71" height="914.54"/><path class="cls-1" d="M1124.58,613.46v900.33H404.08V613.46h720.5m14.21-14.21H389.87V1528h748.92V599.25Z" transform="translate(-0.12 0.42)"/><rect class="cls-5" x="404.05" y="613.88" width="720.41" height="68.05"/><rect class="cls-4" x="489.85" y="1086.88" width="156.14" height="156.14"/><path class="cls-15" d="M646.1,1086.46v156.13H490V1086.46H646.1m3.17-3.17H486.8v162.47H649.27V1083.29Z" transform="translate(-0.12 0.42)"/><rect class="cls-15" x="493.53" y="1257.7" width="79.41" height="14.37"/><rect class="cls-4" x="493.53" y="1286.8" width="129.9" height="7.89"/><rect class="cls-4" x="493.53" y="1306.34" width="129.9" height="7.89"/><rect class="cls-4" x="493.53" y="1325.88" width="129.9" height="7.89"/><rect class="cls-4" x="691.68" y="1086.88" width="156.14" height="156.14"/><path class="cls-15" d="M847.94,1086.46v156.13H691.8V1086.46H847.94m3.16-3.17H688.63v162.47H851.1V1083.29Z" transform="translate(-0.12 0.42)"/><rect class="cls-15" x="695.47" y="1257.7" width="79.41" height="14.37"/><rect class="cls-4" x="695.47" y="1286.8" width="129.9" height="7.89"/><rect class="cls-4" x="695.47" y="1306.34" width="129.9" height="7.89"/><rect class="cls-4" x="695.47" y="1325.88" width="129.9" height="7.89"/><rect class="cls-4" x="893.51" y="1086.88" width="156.14" height="156.14"/><path class="cls-15" d="M1049.77,1086.46v156.13H893.63V1086.46h156.14m3.17-3.17H890.47v162.47h162.47V1083.29Z" transform="translate(-0.12 0.42)"/><rect class="cls-15" x="897.42" y="1257.7" width="79.41" height="14.37"/><rect class="cls-4" x="897.42" y="1286.8" width="129.9" height="7.89"/><rect class="cls-4" x="897.42" y="1306.34" width="129.9" height="7.89"/><rect class="cls-4" x="897.42" y="1325.88" width="129.9" height="7.89"/><rect class="cls-4" x="493.53" y="1345.42" width="129.9" height="7.89"/><rect class="cls-4" x="493.53" y="1364.95" width="129.9" height="7.89"/><rect class="cls-4" x="695.47" y="1345.42" width="129.9" height="7.89"/><rect class="cls-4" x="695.47" y="1364.95" width="129.9" height="7.89"/><rect class="cls-4" x="897.42" y="1345.42" width="129.9" height="7.89"/><rect class="cls-4" x="897.42" y="1364.95" width="129.9" height="7.89"/><rect class="cls-5" x="403.96" y="1401.32" width="721.29" height="112.89"/><rect class="cls-15" x="435.54" y="764.37" width="59.75" height="50.32"/><rect class="cls-12" x="502.25" y="764.37" width="366.97" height="50.32"/><rect class="cls-5" x="879.03" y="764.37" width="74.2" height="50.32"/><rect class="cls-5" x="962.6" y="764.37" width="50.32" height="50.32"/><rect class="cls-5" x="1022.27" y="764.37" width="73.38" height="50.32"/><rect class="cls-15" x="435.54" y="822.32" width="59.75" height="50.32"/><rect class="cls-12" x="502.25" y="822.32" width="366.97" height="50.32"/><rect class="cls-5" x="879.03" y="822.32" width="74.2" height="50.32"/><rect class="cls-5" x="962.6" y="822.32" width="50.32" height="50.32"/><rect class="cls-5" x="1022.27" y="822.32" width="73.38" height="50.32"/><rect class="cls-15" x="435.54" y="880.28" width="59.75" height="50.32"/><rect class="cls-12" x="502.25" y="880.28" width="366.97" height="50.32"/><rect class="cls-5" x="879.03" y="880.28" width="74.2" height="50.32"/><rect class="cls-5" x="962.6" y="880.28" width="50.32" height="50.32"/><rect class="cls-5" x="1022.27" y="880.28" width="73.38" height="50.32"/><rect class="cls-15" x="435.54" y="938.23" width="59.75" height="50.32"/><rect class="cls-12" x="502.25" y="938.23" width="366.97" height="50.32"/><rect class="cls-5" x="879.03" y="938.23" width="74.2" height="50.32"/><rect class="cls-5" x="962.6" y="938.23" width="50.32" height="50.32"/><rect class="cls-5" x="1022.27" y="938.23" width="73.38" height="50.32"/><rect class="cls-15" x="435.54" y="996.19" width="59.75" height="50.32"/><rect class="cls-12" x="502.25" y="996.19" width="366.97" height="50.32"/><rect class="cls-5" x="879.03" y="996.19" width="74.2" height="50.32"/><rect class="cls-5" x="962.6" y="996.19" width="50.32" height="50.32"/><rect class="cls-5" x="1022.27" y="996.19" width="73.38" height="50.32"/><rect class="cls-1" x="66.1" y="2582.22" width="492.95" height="370.78"/><polygon class="cls-12" points="373.53 2754.54 277.57 2809.94 277.57 2699.14 373.53 2754.54"/><rect class="cls-5" x="66.1" y="2911.3" width="492.95" height="41.71"/><path class="cls-12" d="M312.7,2850.48a96.37,96.37,0,1,1,96.36-96.36A96.48,96.48,0,0,1,312.7,2850.48Zm0-187.74a91.38,91.38,0,1,0,91.37,91.38A91.48,91.48,0,0,0,312.7,2662.74Z" transform="translate(-0.12 0.42)"/><rect class="cls-1" x="141.54" y="2929.94" width="395.41" height="4.42"/><rect class="cls-1" x="85.55" y="2924.23" width="4.91" height="15.85"/><rect class="cls-1" x="97.36" y="2924.23" width="4.91" height="15.85"/><rect class="cls-1" x="3522.64" y="1468.07" width="492.95" height="370.78"/><polygon class="cls-12" points="3830.07 1640.39 3734.12 1695.79 3734.12 1584.99 3830.07 1640.39"/><rect class="cls-5" x="3522.64" y="1797.15" width="492.95" height="41.71"/><path class="cls-12" d="M3769.24,1736.33a96.37,96.37,0,1,1,96.37-96.36A96.48,96.48,0,0,1,3769.24,1736.33Zm0-187.74a91.38,91.38,0,1,0,91.37,91.38A91.48,91.48,0,0,0,3769.24,1548.59Z" transform="translate(-0.12 0.42)"/><rect class="cls-1" x="3598.08" y="1815.79" width="395.41" height="4.42"/><rect class="cls-1" x="3542.1" y="1810.08" width="4.91" height="15.85"/><rect class="cls-1" x="3553.91" y="1810.08" width="4.91" height="15.85"/><path class="cls-4" d="M1452.93,623.81c-1.66-23-22.52-28.16-22.52-28.16-26.73-6.44-45.19,12.53-45.19,12.53s-18.49-19-45.23-12.53c0,0-20.84,5.12-22.5,28.16-1.8,25.14,49.75,68.33,67.73,78.71C1403.2,692.14,1454.74,649,1452.93,623.81Z" transform="translate(-0.12 0.42)"/><path class="cls-4" d="M215.58,1361.77c-2.64-36.64-35.81-44.79-35.81-44.79-42.52-10.23-71.87,19.92-71.87,19.92S78.49,1306.75,36,1317c0,0-33.15,8.15-35.78,44.79-2.88,40,79.1,108.65,107.7,125.16C136.5,1470.42,218.45,1401.75,215.58,1361.77Z" transform="translate(-0.12 0.42)"/><path class="cls-1" d="M3203.77,564.9q0,.89,0,1.77c.89,33.18,28.61,59.36,61.81,59.36h181c24-3.07,42.11-24.72,40.61-49.88a47.45,47.45,0,0,0-69-39.32,76.82,76.82,0,0,0-139.72-35.65,64.59,64.59,0,0,0-74.72,63.72Z" transform="translate(-0.12 0.42)"/><path class="cls-1" d="M39,1013.71c0,.59,0,1.17,0,1.76.9,33.18,28.62,59.37,61.81,59.37h181c24-3.08,42.11-24.73,40.62-49.89a47.43,47.43,0,0,0-69-39.31A76.83,76.83,0,0,0,113.69,950a65.56,65.56,0,0,0-10.26-.8A64.52,64.52,0,0,0,39,1013.71Z" transform="translate(-0.12 0.42)"/><path class="cls-1" d="M2840.34,3275.26c0,.59,0,1.18,0,1.77.9,33.18,28.62,59.37,61.81,59.37h181c24-3.08,42.11-24.73,40.61-49.89a47.42,47.42,0,0,0-69-39.31,76.83,76.83,0,0,0-139.72-35.66,64.59,64.59,0,0,0-74.72,63.72Z" transform="translate(-0.12 0.42)"/><polygon class="cls-4" points="3987.39 579.35 3891.44 634.75 3891.44 523.95 3987.39 579.35"/><path class="cls-4" d="M3926.56,675.29a96.37,96.37,0,1,1,96.37-96.36A96.48,96.48,0,0,1,3926.56,675.29Zm0-187.74a91.38,91.38,0,1,0,91.37,91.38A91.48,91.48,0,0,0,3926.56,487.55Z" transform="translate(-0.12 0.42)"/><rect class="cls-1" x="2925.9" y="179.37" width="48.05" height="13.55" rx="0.76" transform="translate(5899.73 372.7) rotate(180)"/><rect class="cls-1" x="2990.6" y="179.37" width="48.05" height="13.55" rx="0.76" transform="translate(6029.13 372.7) rotate(180)"/><rect class="cls-1" x="2948.92" y="261.51" width="48.05" height="13.55" rx="0.76" transform="translate(5945.76 536.98) rotate(180)"/><rect class="cls-1" x="2838.07" y="261.51" width="95.98" height="13.55" rx="1.28" transform="translate(5772 536.98) rotate(180)"/><rect class="cls-1" x="2837" y="179.37" width="71.12" height="13.55" rx="0.92" transform="translate(5745 372.7) rotate(180)"/><rect class="cls-1" x="2840.21" y="219.69" width="172.35" height="13.55" rx="1.18" transform="translate(5852.65 453.34) rotate(180)"/><rect class="cls-1" x="2874.11" y="300.14" width="143.73" height="13.55" rx="1.18" transform="translate(5891.82 614.26) rotate(180)"/><rect class="cls-15" x="1106.55" y="250.02" width="361.33" height="60.67"/><circle class="cls-1" cx="1138.44" cy="280.36" r="13"/><rect class="cls-1" x="1195.88" y="263.36" width="106.33" height="4"/><rect class="cls-1" x="1213.55" y="274.36" width="106.33" height="4"/><rect class="cls-1" x="1182.38" y="291.36" width="106.33" height="4"/><rect class="cls-1" x="1314.05" y="287.36" width="106.33" height="4"/><rect class="cls-15" x="1106.55" y="351.27" width="361.33" height="60.67"/><circle class="cls-1" cx="1138.44" cy="381.61" r="13"/><rect class="cls-1" x="1195.88" y="364.61" width="106.33" height="4"/><rect class="cls-1" x="1213.55" y="375.61" width="106.33" height="4"/><rect class="cls-1" x="1182.38" y="392.61" width="106.33" height="4"/><rect class="cls-1" x="1314.05" y="388.61" width="106.33" height="4"/></g></svg>